<svg xmlns="http://www.w3.org/2000/svg" xmlns:xlink="http://www.w3.org/1999/xlink" width="300" zoomAndPan="magnify" viewBox="0 0 224.87999 30.000001" height="40" preserveAspectRatio="xMidYMid meet" version="1.2"><defs><clipPath id="4ae2e8d5f7"><path d="M 3.570312 4 L 145.828125 4 L 145.828125 25.363281 L 3.570312 25.363281 Z M 3.570312 4 "/></clipPath><clipPath id="aef9c0eae4"><path d="M 209 8 L 221.195312 8 L 221.195312 20 L 209 20 Z M 209 8 "/></clipPath></defs><g id="ae90e38c37"><path style="fill:none;stroke-width:2;stroke-linecap:butt;stroke-linejoin:miter;stroke:#7ed957;stroke-opacity:1;stroke-miterlimit:4;" d="M 0.000872918 0.998309 L 22.189773 0.998309 " transform="matrix(0.00000000125607,0.719673,-0.719673,0.00000000125607,150.148144,6.464216)"/><g clip-rule="nonzero" clip-path="url(#4ae2e8d5f7)"><path style=" stroke:none;fill-rule:nonzero;fill:#0f4c81;fill-opacity:1;" d="M 10.328125 21.6875 C 15.089844 21.6875 17.402344 19.3125 17.402344 16.535156 C 17.402344 10.429688 7.707031 12.542969 7.707031 9.480469 C 7.707031 8.433594 8.589844 7.578125 10.875 7.578125 C 12.351562 7.578125 13.949219 8.007812 15.496094 8.886719 L 16.6875 5.964844 C 15.140625 4.988281 12.996094 4.492188 10.898438 4.492188 C 6.160156 4.492188 3.871094 6.84375 3.871094 9.667969 C 3.871094 15.84375 13.566406 13.707031 13.566406 16.820312 C 13.566406 17.839844 12.636719 18.601562 10.351562 18.601562 C 8.351562 18.601562 6.253906 17.886719 4.847656 16.867188 L 3.539062 19.765625 C 5.015625 20.90625 7.683594 21.6875 10.328125 21.6875 Z M 23.261719 21.402344 L 27.121094 21.402344 L 27.121094 7.910156 L 32.457031 7.910156 L 32.457031 4.777344 L 17.925781 4.777344 L 17.925781 7.910156 L 23.261719 7.910156 Z M 46.152344 21.402344 L 50.203125 21.402344 L 42.746094 4.777344 L 38.933594 4.777344 L 31.503906 21.402344 L 35.457031 21.402344 L 36.933594 17.839844 L 44.675781 17.839844 Z M 38.171875 14.917969 L 40.816406 8.550781 L 43.460938 14.917969 Z M 59.679688 21.6875 C 62.585938 21.6875 64.992188 20.644531 66.566406 18.71875 L 64.085938 16.4375 C 62.96875 17.746094 61.5625 18.410156 59.894531 18.410156 C 56.773438 18.410156 54.558594 16.226562 54.558594 13.089844 C 54.558594 9.953125 56.773438 7.769531 59.894531 7.769531 C 61.5625 7.769531 62.96875 8.433594 64.085938 9.714844 L 66.566406 7.4375 C 64.992188 5.535156 62.585938 4.492188 59.703125 4.492188 C 54.511719 4.492188 50.652344 8.078125 50.652344 13.089844 C 50.652344 18.101562 54.511719 21.6875 59.679688 21.6875 Z M 80.582031 21.402344 L 85.082031 21.402344 L 77.769531 12.1875 L 84.679688 4.777344 L 80.390625 4.777344 L 73.003906 12.542969 L 73.003906 4.777344 L 69.171875 4.777344 L 69.171875 21.402344 L 73.003906 21.402344 L 73.003906 17.199219 L 75.246094 14.871094 Z M 102.515625 21.140625 C 101.730469 21.972656 100.824219 22.378906 99.800781 22.378906 C 98.96875 22.378906 98.253906 22.066406 97.441406 21.214844 C 100.992188 20.074219 103.398438 16.984375 103.398438 13.089844 C 103.398438 8.125 99.515625 4.492188 94.273438 4.492188 C 89.011719 4.492188 85.152344 8.148438 85.152344 13.089844 C 85.152344 17.601562 88.367188 21.046875 92.941406 21.617188 C 95.511719 24.324219 97.253906 25.226562 99.730469 25.226562 C 101.5625 25.226562 103.136719 24.515625 104.230469 23.183594 Z M 89.058594 13.089844 C 89.058594 9.929688 91.296875 7.769531 94.273438 7.769531 C 97.253906 7.769531 99.492188 9.929688 99.492188 13.089844 C 99.492188 16.25 97.253906 18.410156 94.273438 18.410156 C 91.296875 18.410156 89.058594 16.25 89.058594 13.089844 Z M 106.296875 21.402344 L 118.519531 21.402344 L 118.519531 18.269531 L 110.15625 18.269531 L 110.15625 4.777344 L 106.296875 4.777344 Z M 120.175781 7.246094 L 120.175781 10.191406 L 128.105469 13.089844 L 120.175781 15.964844 L 120.175781 18.933594 L 131.511719 14.632812 L 131.511719 11.546875 Z M 134.433594 7.246094 L 134.433594 10.191406 L 142.367188 13.089844 L 134.433594 15.964844 L 134.433594 18.933594 L 145.773438 14.632812 L 145.773438 11.546875 Z M 134.433594 7.246094 "/></g><g style="fill:#7ed957;fill-opacity:1;"><g transform="translate(152.169927, 19.197181)"><path style="stroke:none" d="M 1.3125 -11.03125 L 6.328125 -11.03125 C 7.523438 -11.03125 8.582031 -10.800781 9.5 -10.34375 C 10.414062 -9.894531 11.128906 -9.253906 11.640625 -8.421875 C 12.148438 -7.585938 12.40625 -6.617188 12.40625 -5.515625 C 12.40625 -4.410156 12.148438 -3.441406 11.640625 -2.609375 C 11.128906 -1.785156 10.414062 -1.144531 9.5 -0.6875 C 8.582031 -0.226562 7.523438 0 6.328125 0 L 1.3125 0 Z M 6.203125 -2.09375 C 7.296875 -2.09375 8.171875 -2.398438 8.828125 -3.015625 C 9.492188 -3.628906 9.828125 -4.460938 9.828125 -5.515625 C 9.828125 -6.566406 9.492188 -7.398438 8.828125 -8.015625 C 8.171875 -8.628906 7.296875 -8.9375 6.203125 -8.9375 L 3.859375 -8.9375 L 3.859375 -2.09375 Z M 6.203125 -2.09375 "/></g></g><g style="fill:#7ed957;fill-opacity:1;"><g transform="translate(165.190664, 19.197181)"><path style="stroke:none" d="M 9.859375 -2.046875 L 9.859375 0 L 1.3125 0 L 1.3125 -11.03125 L 9.65625 -11.03125 L 9.65625 -8.984375 L 3.84375 -8.984375 L 3.84375 -6.59375 L 8.96875 -6.59375 L 8.96875 -4.609375 L 3.84375 -4.609375 L 3.84375 -2.046875 Z M 9.859375 -2.046875 "/></g></g><g style="fill:#7ed957;fill-opacity:1;"><g transform="translate(175.768039, 19.197181)"><path style="stroke:none" d="M 6.078125 -11.03125 C 7.054688 -11.03125 7.90625 -10.867188 8.625 -10.546875 C 9.351562 -10.222656 9.910156 -9.757812 10.296875 -9.15625 C 10.679688 -8.5625 10.875 -7.851562 10.875 -7.03125 C 10.875 -6.21875 10.679688 -5.507812 10.296875 -4.90625 C 9.910156 -4.300781 9.351562 -3.835938 8.625 -3.515625 C 7.90625 -3.203125 7.054688 -3.046875 6.078125 -3.046875 L 3.859375 -3.046875 L 3.859375 0 L 1.3125 0 L 1.3125 -11.03125 Z M 5.9375 -5.125 C 6.707031 -5.125 7.289062 -5.285156 7.6875 -5.609375 C 8.09375 -5.941406 8.296875 -6.414062 8.296875 -7.03125 C 8.296875 -7.65625 8.09375 -8.128906 7.6875 -8.453125 C 7.289062 -8.785156 6.707031 -8.953125 5.9375 -8.953125 L 3.859375 -8.953125 L 3.859375 -5.125 Z M 5.9375 -5.125 "/></g></g><g style="fill:#7ed957;fill-opacity:1;"><g transform="translate(187.306995, 19.197181)"><path style="stroke:none" d="M 1.3125 -11.03125 L 3.859375 -11.03125 L 3.859375 -2.078125 L 9.390625 -2.078125 L 9.390625 0 L 1.3125 0 Z M 1.3125 -11.03125 "/></g></g><g style="fill:#7ed957;fill-opacity:1;"><g transform="translate(196.82821, 19.197181)"><path style="stroke:none" d="M 6.65625 0.1875 C 5.507812 0.1875 4.472656 -0.0546875 3.546875 -0.546875 C 2.628906 -1.046875 1.910156 -1.726562 1.390625 -2.59375 C 0.867188 -3.457031 0.609375 -4.429688 0.609375 -5.515625 C 0.609375 -6.597656 0.867188 -7.570312 1.390625 -8.4375 C 1.910156 -9.3125 2.628906 -9.992188 3.546875 -10.484375 C 4.472656 -10.972656 5.507812 -11.21875 6.65625 -11.21875 C 7.800781 -11.21875 8.828125 -10.972656 9.734375 -10.484375 C 10.648438 -9.992188 11.367188 -9.3125 11.890625 -8.4375 C 12.421875 -7.570312 12.6875 -6.597656 12.6875 -5.515625 C 12.6875 -4.429688 12.421875 -3.457031 11.890625 -2.59375 C 11.367188 -1.726562 10.648438 -1.046875 9.734375 -0.546875 C 8.828125 -0.0546875 7.800781 0.1875 6.65625 0.1875 Z M 6.65625 -1.984375 C 7.300781 -1.984375 7.882812 -2.132812 8.40625 -2.4375 C 8.9375 -2.738281 9.351562 -3.15625 9.65625 -3.6875 C 9.957031 -4.226562 10.109375 -4.835938 10.109375 -5.515625 C 10.109375 -6.203125 9.957031 -6.8125 9.65625 -7.34375 C 9.351562 -7.882812 8.9375 -8.300781 8.40625 -8.59375 C 7.882812 -8.894531 7.300781 -9.046875 6.65625 -9.046875 C 6 -9.046875 5.40625 -8.894531 4.875 -8.59375 C 4.351562 -8.300781 3.941406 -7.882812 3.640625 -7.34375 C 3.347656 -6.8125 3.203125 -6.203125 3.203125 -5.515625 C 3.203125 -4.835938 3.347656 -4.226562 3.640625 -3.6875 C 3.941406 -3.15625 4.351562 -2.738281 4.875 -2.4375 C 5.40625 -2.132812 6 -1.984375 6.65625 -1.984375 Z M 6.65625 -1.984375 "/></g></g><g clip-rule="nonzero" clip-path="url(#aef9c0eae4)"><g style="fill:#7ed957;fill-opacity:1;"><g transform="translate(210.132686, 19.197181)"><path style="stroke:none" d="M 6.609375 -3.90625 L 6.609375 0 L 4.046875 0 L 4.046875 -3.9375 L -0.21875 -11.03125 L 2.484375 -11.03125 L 5.4375 -6.140625 L 8.390625 -11.03125 L 10.890625 -11.03125 Z M 6.609375 -3.90625 "/></g></g></g></g></svg>