<svg xmlns="http://www.w3.org/2000/svg" xmlns:xlink="http://www.w3.org/1999/xlink" width="300" zoomAndPan="magnify" viewBox="0 0 224.87999 30.000001" height="40" preserveAspectRatio="xMidYMid meet" version="1.2"><defs><clipPath id="f5aa627eeb"><path d="M 4 6 L 139.292969 6 L 139.292969 26 L 4 26 Z M 4 6 "/></clipPath></defs><g id="79acec792f"><path style="fill:none;stroke-width:2;stroke-linecap:butt;stroke-linejoin:miter;stroke:#ffffff;stroke-opacity:1;stroke-miterlimit:4;" d="M 0.000872918 1.001558 L 22.189773 1.001558 " transform="matrix(0.00000000125607,0.719673,-0.719673,0.00000000125607,145.834076,6.464216)"/><g clip-rule="nonzero" clip-path="url(#f5aa627eeb)"><path style=" stroke:none;fill-rule:nonzero;fill:#ffffff;fill-opacity:1;" d="M 10.683594 22.628906 C 15.203125 22.628906 17.394531 20.367188 17.394531 17.726562 C 17.394531 11.917969 8.199219 13.929688 8.199219 11.015625 C 8.199219 10.023438 9.035156 9.207031 11.203125 9.207031 C 12.605469 9.207031 14.117188 9.613281 15.585938 10.449219 L 16.71875 7.671875 C 15.25 6.746094 13.214844 6.269531 11.226562 6.269531 C 6.730469 6.269531 4.5625 8.507812 4.5625 11.195312 C 4.5625 17.070312 13.757812 15.035156 13.757812 17.996094 C 13.757812 18.96875 12.875 19.691406 10.707031 19.691406 C 8.808594 19.691406 6.824219 19.011719 5.488281 18.042969 L 4.246094 20.796875 C 5.648438 21.882812 8.175781 22.628906 10.683594 22.628906 Z M 22.949219 22.355469 L 26.609375 22.355469 L 26.609375 9.523438 L 31.671875 9.523438 L 31.671875 6.542969 L 17.890625 6.542969 L 17.890625 9.523438 L 22.949219 9.523438 Z M 44.660156 22.355469 L 48.5 22.355469 L 41.429688 6.542969 L 37.816406 6.542969 L 30.765625 22.355469 L 34.515625 22.355469 L 35.917969 18.96875 L 43.257812 18.96875 Z M 37.09375 16.1875 L 39.601562 10.132812 L 42.109375 16.1875 Z M 57.488281 22.628906 C 60.246094 22.628906 62.527344 21.632812 64.015625 19.804688 L 61.667969 17.632812 C 60.605469 18.878906 59.273438 19.507812 57.691406 19.507812 C 54.734375 19.507812 52.632812 17.429688 52.632812 14.449219 C 52.632812 11.46875 54.734375 9.390625 57.691406 9.390625 C 59.273438 9.390625 60.605469 10.023438 61.667969 11.242188 L 64.015625 9.074219 C 62.527344 7.265625 60.246094 6.269531 57.511719 6.269531 C 52.585938 6.269531 48.925781 9.683594 48.925781 14.449219 C 48.925781 19.214844 52.585938 22.628906 57.488281 22.628906 Z M 77.308594 22.355469 L 81.578125 22.355469 L 74.644531 13.589844 L 81.195312 6.542969 L 77.128906 6.542969 L 70.125 13.929688 L 70.125 6.542969 L 66.488281 6.542969 L 66.488281 22.355469 L 70.125 22.355469 L 70.125 18.359375 L 72.25 16.144531 Z M 98.113281 22.109375 C 97.367188 22.898438 96.507812 23.28125 95.535156 23.28125 C 94.746094 23.28125 94.070312 22.988281 93.300781 22.175781 C 96.667969 21.089844 98.949219 18.152344 98.949219 14.449219 C 98.949219 9.726562 95.265625 6.269531 90.296875 6.269531 C 85.304688 6.269531 81.644531 9.75 81.644531 14.449219 C 81.644531 18.742188 84.691406 22.015625 89.03125 22.558594 C 91.46875 25.132812 93.121094 25.992188 95.46875 25.992188 C 97.207031 25.992188 98.699219 25.316406 99.738281 24.050781 Z M 85.347656 14.449219 C 85.347656 11.445312 87.472656 9.390625 90.296875 9.390625 C 93.121094 9.390625 95.242188 11.445312 95.242188 14.449219 C 95.242188 17.453125 93.121094 19.507812 90.296875 19.507812 C 87.472656 19.507812 85.347656 17.453125 85.347656 14.449219 Z M 101.699219 22.355469 L 113.289062 22.355469 L 113.289062 19.375 L 105.359375 19.375 L 105.359375 6.542969 L 101.699219 6.542969 Z M 114.859375 8.890625 L 114.859375 11.691406 L 122.378906 14.449219 L 114.859375 17.183594 L 114.859375 20.007812 L 125.609375 15.917969 L 125.609375 12.980469 Z M 128.382812 8.890625 L 128.382812 11.691406 L 135.90625 14.449219 L 128.382812 17.183594 L 128.382812 20.007812 L 139.136719 15.917969 L 139.136719 12.980469 Z M 128.382812 8.890625 "/></g><g style="fill:#ffffff;fill-opacity:1;"><g transform="translate(150.915599, 19.596776)"><path style="stroke:none" d="M 1.3125 -11.03125 L 6.328125 -11.03125 C 7.523438 -11.03125 8.582031 -10.800781 9.5 -10.34375 C 10.414062 -9.894531 11.128906 -9.253906 11.640625 -8.421875 C 12.148438 -7.585938 12.40625 -6.617188 12.40625 -5.515625 C 12.40625 -4.410156 12.148438 -3.441406 11.640625 -2.609375 C 11.128906 -1.785156 10.414062 -1.144531 9.5 -0.6875 C 8.582031 -0.226562 7.523438 0 6.328125 0 L 1.3125 0 Z M 6.203125 -2.09375 C 7.296875 -2.09375 8.171875 -2.398438 8.828125 -3.015625 C 9.492188 -3.628906 9.828125 -4.460938 9.828125 -5.515625 C 9.828125 -6.566406 9.492188 -7.398438 8.828125 -8.015625 C 8.171875 -8.628906 7.296875 -8.9375 6.203125 -8.9375 L 3.859375 -8.9375 L 3.859375 -2.09375 Z M 6.203125 -2.09375 "/></g></g><g style="fill:#ffffff;fill-opacity:1;"><g transform="translate(163.936335, 19.596776)"><path style="stroke:none" d="M 9.859375 -2.046875 L 9.859375 0 L 1.3125 0 L 1.3125 -11.03125 L 9.65625 -11.03125 L 9.65625 -8.984375 L 3.84375 -8.984375 L 3.84375 -6.59375 L 8.96875 -6.59375 L 8.96875 -4.609375 L 3.84375 -4.609375 L 3.84375 -2.046875 Z M 9.859375 -2.046875 "/></g></g><g style="fill:#ffffff;fill-opacity:1;"><g transform="translate(174.513711, 19.596776)"><path style="stroke:none" d="M 6.078125 -11.03125 C 7.054688 -11.03125 7.90625 -10.867188 8.625 -10.546875 C 9.351562 -10.222656 9.910156 -9.757812 10.296875 -9.15625 C 10.679688 -8.5625 10.875 -7.851562 10.875 -7.03125 C 10.875 -6.21875 10.679688 -5.507812 10.296875 -4.90625 C 9.910156 -4.300781 9.351562 -3.835938 8.625 -3.515625 C 7.90625 -3.203125 7.054688 -3.046875 6.078125 -3.046875 L 3.859375 -3.046875 L 3.859375 0 L 1.3125 0 L 1.3125 -11.03125 Z M 5.9375 -5.125 C 6.707031 -5.125 7.289062 -5.285156 7.6875 -5.609375 C 8.09375 -5.941406 8.296875 -6.414062 8.296875 -7.03125 C 8.296875 -7.65625 8.09375 -8.128906 7.6875 -8.453125 C 7.289062 -8.785156 6.707031 -8.953125 5.9375 -8.953125 L 3.859375 -8.953125 L 3.859375 -5.125 Z M 5.9375 -5.125 "/></g></g><g style="fill:#ffffff;fill-opacity:1;"><g transform="translate(186.052667, 19.596776)"><path style="stroke:none" d="M 1.3125 -11.03125 L 3.859375 -11.03125 L 3.859375 -2.078125 L 9.390625 -2.078125 L 9.390625 0 L 1.3125 0 Z M 1.3125 -11.03125 "/></g></g><g style="fill:#ffffff;fill-opacity:1;"><g transform="translate(195.573881, 19.596776)"><path style="stroke:none" d="M 6.65625 0.1875 C 5.507812 0.1875 4.472656 -0.0546875 3.546875 -0.546875 C 2.628906 -1.046875 1.910156 -1.726562 1.390625 -2.59375 C 0.867188 -3.457031 0.609375 -4.429688 0.609375 -5.515625 C 0.609375 -6.597656 0.867188 -7.570312 1.390625 -8.4375 C 1.910156 -9.3125 2.628906 -9.992188 3.546875 -10.484375 C 4.472656 -10.972656 5.507812 -11.21875 6.65625 -11.21875 C 7.800781 -11.21875 8.828125 -10.972656 9.734375 -10.484375 C 10.648438 -9.992188 11.367188 -9.3125 11.890625 -8.4375 C 12.421875 -7.570312 12.6875 -6.597656 12.6875 -5.515625 C 12.6875 -4.429688 12.421875 -3.457031 11.890625 -2.59375 C 11.367188 -1.726562 10.648438 -1.046875 9.734375 -0.546875 C 8.828125 -0.0546875 7.800781 0.1875 6.65625 0.1875 Z M 6.65625 -1.984375 C 7.300781 -1.984375 7.882812 -2.132812 8.40625 -2.4375 C 8.9375 -2.738281 9.351562 -3.15625 9.65625 -3.6875 C 9.957031 -4.226562 10.109375 -4.835938 10.109375 -5.515625 C 10.109375 -6.203125 9.957031 -6.8125 9.65625 -7.34375 C 9.351562 -7.882812 8.9375 -8.300781 8.40625 -8.59375 C 7.882812 -8.894531 7.300781 -9.046875 6.65625 -9.046875 C 6 -9.046875 5.40625 -8.894531 4.875 -8.59375 C 4.351562 -8.300781 3.941406 -7.882812 3.640625 -7.34375 C 3.347656 -6.8125 3.203125 -6.203125 3.203125 -5.515625 C 3.203125 -4.835938 3.347656 -4.226562 3.640625 -3.6875 C 3.941406 -3.15625 4.351562 -2.738281 4.875 -2.4375 C 5.40625 -2.132812 6 -1.984375 6.65625 -1.984375 Z M 6.65625 -1.984375 "/></g></g><g style="fill:#ffffff;fill-opacity:1;"><g transform="translate(208.878358, 19.596776)"><path style="stroke:none" d="M 6.609375 -3.90625 L 6.609375 0 L 4.046875 0 L 4.046875 -3.9375 L -0.21875 -11.03125 L 2.484375 -11.03125 L 5.4375 -6.140625 L 8.390625 -11.03125 L 10.890625 -11.03125 Z M 6.609375 -3.90625 "/></g></g></g></svg>