<svg xmlns="http://www.w3.org/2000/svg" xmlns:xlink="http://www.w3.org/1999/xlink" width="300" zoomAndPan="magnify" viewBox="0 0 224.87999 30.000001" height="40" preserveAspectRatio="xMidYMid meet" version="1.2"><defs><clipPath id="35279ebdb1"><path d="M 4 6 L 139.292969 6 L 139.292969 26.460938 L 4 26.460938 Z M 4 6 "/></clipPath></defs><g id="1a396bf9fa"><path style="fill:none;stroke-width:2;stroke-linecap:butt;stroke-linejoin:miter;stroke:#7ed957;stroke-opacity:1;stroke-miterlimit:4;" d="M 0.000872918 1.001558 L 22.189773 1.001558 " transform="matrix(0.00000000125607,0.719673,-0.719673,0.00000000125607,145.834076,6.464216)"/><g clip-rule="nonzero" clip-path="url(#35279ebdb1)"><path style=" stroke:none;fill-rule:nonzero;fill:#0f4c81;fill-opacity:1;" d="M 10.691406 22.910156 C 15.210938 22.910156 17.402344 20.613281 17.402344 17.925781 C 17.402344 12.027344 8.203125 14.070312 8.203125 11.109375 C 8.203125 10.097656 9.039062 9.269531 11.210938 9.269531 C 12.613281 9.269531 14.125 9.683594 15.59375 10.535156 L 16.726562 7.710938 C 15.257812 6.769531 13.222656 6.285156 11.234375 6.285156 C 6.734375 6.285156 4.5625 8.558594 4.5625 11.292969 C 4.5625 17.261719 13.765625 15.195312 13.765625 18.203125 C 13.765625 19.191406 12.882812 19.925781 10.710938 19.925781 C 8.8125 19.925781 6.824219 19.234375 5.492188 18.25 L 4.246094 21.050781 C 5.648438 22.152344 8.179688 22.910156 10.691406 22.910156 Z M 22.964844 22.632812 L 26.625 22.632812 L 26.625 9.59375 L 31.6875 9.59375 L 31.6875 6.5625 L 17.898438 6.5625 L 17.898438 9.59375 L 22.964844 9.59375 Z M 44.6875 22.632812 L 48.53125 22.632812 L 41.457031 6.5625 L 37.839844 6.5625 L 30.785156 22.632812 L 34.539062 22.632812 L 35.9375 19.191406 L 43.285156 19.191406 Z M 37.113281 16.367188 L 39.625 10.210938 L 42.132812 16.367188 Z M 57.523438 22.910156 C 60.28125 22.910156 62.566406 21.898438 64.058594 20.039062 L 61.707031 17.835938 C 60.644531 19.097656 59.3125 19.742188 57.726562 19.742188 C 54.765625 19.742188 52.664062 17.628906 52.664062 14.597656 C 52.664062 11.566406 54.765625 9.453125 57.726562 9.453125 C 59.3125 9.453125 60.644531 10.097656 61.707031 11.335938 L 64.058594 9.132812 C 62.566406 7.296875 60.28125 6.285156 57.546875 6.285156 C 52.621094 6.285156 48.957031 9.753906 48.957031 14.597656 C 48.957031 19.441406 52.621094 22.910156 57.523438 22.910156 Z M 77.359375 22.632812 L 81.632812 22.632812 L 74.691406 13.726562 L 81.246094 6.5625 L 77.179688 6.5625 L 70.171875 14.070312 L 70.171875 6.5625 L 66.53125 6.5625 L 66.53125 22.632812 L 70.171875 22.632812 L 70.171875 18.570312 L 72.296875 16.320312 Z M 98.175781 22.382812 C 97.429688 23.183594 96.570312 23.574219 95.597656 23.574219 C 94.808594 23.574219 94.128906 23.277344 93.359375 22.449219 C 96.730469 21.347656 99.011719 18.363281 99.011719 14.597656 C 99.011719 9.796875 95.328125 6.285156 90.355469 6.285156 C 85.359375 6.285156 81.695312 9.820312 81.695312 14.597656 C 81.695312 18.960938 84.746094 22.289062 89.089844 22.839844 C 91.53125 25.457031 93.179688 26.332031 95.53125 26.332031 C 97.269531 26.332031 98.761719 25.640625 99.804688 24.355469 Z M 85.402344 14.597656 C 85.402344 11.542969 87.527344 9.453125 90.355469 9.453125 C 93.179688 9.453125 95.304688 11.542969 95.304688 14.597656 C 95.304688 17.652344 93.179688 19.742188 90.355469 19.742188 C 87.527344 19.742188 85.402344 17.652344 85.402344 14.597656 Z M 101.765625 22.632812 L 113.359375 22.632812 L 113.359375 19.601562 L 105.425781 19.601562 L 105.425781 6.5625 L 101.765625 6.5625 Z M 114.933594 8.949219 L 114.933594 11.796875 L 122.460938 14.597656 L 114.933594 17.375 L 114.933594 20.246094 L 125.691406 16.089844 L 125.691406 13.105469 Z M 128.464844 8.949219 L 128.464844 11.796875 L 135.992188 14.597656 L 128.464844 17.375 L 128.464844 20.246094 L 139.226562 16.089844 L 139.226562 13.105469 Z M 128.464844 8.949219 "/></g><g style="fill:#7ed957;fill-opacity:1;"><g transform="translate(151.008637, 19.596776)"><path style="stroke:none" d="M 1.3125 -11.03125 L 6.328125 -11.03125 C 7.523438 -11.03125 8.582031 -10.800781 9.5 -10.34375 C 10.414062 -9.894531 11.128906 -9.253906 11.640625 -8.421875 C 12.148438 -7.585938 12.40625 -6.617188 12.40625 -5.515625 C 12.40625 -4.410156 12.148438 -3.441406 11.640625 -2.609375 C 11.128906 -1.785156 10.414062 -1.144531 9.5 -0.6875 C 8.582031 -0.226562 7.523438 0 6.328125 0 L 1.3125 0 Z M 6.203125 -2.09375 C 7.296875 -2.09375 8.171875 -2.398438 8.828125 -3.015625 C 9.492188 -3.628906 9.828125 -4.460938 9.828125 -5.515625 C 9.828125 -6.566406 9.492188 -7.398438 8.828125 -8.015625 C 8.171875 -8.628906 7.296875 -8.9375 6.203125 -8.9375 L 3.859375 -8.9375 L 3.859375 -2.09375 Z M 6.203125 -2.09375 "/></g></g><g style="fill:#7ed957;fill-opacity:1;"><g transform="translate(164.029373, 19.596776)"><path style="stroke:none" d="M 9.859375 -2.046875 L 9.859375 0 L 1.3125 0 L 1.3125 -11.03125 L 9.65625 -11.03125 L 9.65625 -8.984375 L 3.84375 -8.984375 L 3.84375 -6.59375 L 8.96875 -6.59375 L 8.96875 -4.609375 L 3.84375 -4.609375 L 3.84375 -2.046875 Z M 9.859375 -2.046875 "/></g></g><g style="fill:#7ed957;fill-opacity:1;"><g transform="translate(174.606749, 19.596776)"><path style="stroke:none" d="M 6.078125 -11.03125 C 7.054688 -11.03125 7.90625 -10.867188 8.625 -10.546875 C 9.351562 -10.222656 9.910156 -9.757812 10.296875 -9.15625 C 10.679688 -8.5625 10.875 -7.851562 10.875 -7.03125 C 10.875 -6.21875 10.679688 -5.507812 10.296875 -4.90625 C 9.910156 -4.300781 9.351562 -3.835938 8.625 -3.515625 C 7.90625 -3.203125 7.054688 -3.046875 6.078125 -3.046875 L 3.859375 -3.046875 L 3.859375 0 L 1.3125 0 L 1.3125 -11.03125 Z M 5.9375 -5.125 C 6.707031 -5.125 7.289062 -5.285156 7.6875 -5.609375 C 8.09375 -5.941406 8.296875 -6.414062 8.296875 -7.03125 C 8.296875 -7.65625 8.09375 -8.128906 7.6875 -8.453125 C 7.289062 -8.785156 6.707031 -8.953125 5.9375 -8.953125 L 3.859375 -8.953125 L 3.859375 -5.125 Z M 5.9375 -5.125 "/></g></g><g style="fill:#7ed957;fill-opacity:1;"><g transform="translate(186.145705, 19.596776)"><path style="stroke:none" d="M 1.3125 -11.03125 L 3.859375 -11.03125 L 3.859375 -2.078125 L 9.390625 -2.078125 L 9.390625 0 L 1.3125 0 Z M 1.3125 -11.03125 "/></g></g><g style="fill:#7ed957;fill-opacity:1;"><g transform="translate(195.666919, 19.596776)"><path style="stroke:none" d="M 6.65625 0.1875 C 5.507812 0.1875 4.472656 -0.0546875 3.546875 -0.546875 C 2.628906 -1.046875 1.910156 -1.726562 1.390625 -2.59375 C 0.867188 -3.457031 0.609375 -4.429688 0.609375 -5.515625 C 0.609375 -6.597656 0.867188 -7.570312 1.390625 -8.4375 C 1.910156 -9.3125 2.628906 -9.992188 3.546875 -10.484375 C 4.472656 -10.972656 5.507812 -11.21875 6.65625 -11.21875 C 7.800781 -11.21875 8.828125 -10.972656 9.734375 -10.484375 C 10.648438 -9.992188 11.367188 -9.3125 11.890625 -8.4375 C 12.421875 -7.570312 12.6875 -6.597656 12.6875 -5.515625 C 12.6875 -4.429688 12.421875 -3.457031 11.890625 -2.59375 C 11.367188 -1.726562 10.648438 -1.046875 9.734375 -0.546875 C 8.828125 -0.0546875 7.800781 0.1875 6.65625 0.1875 Z M 6.65625 -1.984375 C 7.300781 -1.984375 7.882812 -2.132812 8.40625 -2.4375 C 8.9375 -2.738281 9.351562 -3.15625 9.65625 -3.6875 C 9.957031 -4.226562 10.109375 -4.835938 10.109375 -5.515625 C 10.109375 -6.203125 9.957031 -6.8125 9.65625 -7.34375 C 9.351562 -7.882812 8.9375 -8.300781 8.40625 -8.59375 C 7.882812 -8.894531 7.300781 -9.046875 6.65625 -9.046875 C 6 -9.046875 5.40625 -8.894531 4.875 -8.59375 C 4.351562 -8.300781 3.941406 -7.882812 3.640625 -7.34375 C 3.347656 -6.8125 3.203125 -6.203125 3.203125 -5.515625 C 3.203125 -4.835938 3.347656 -4.226562 3.640625 -3.6875 C 3.941406 -3.15625 4.351562 -2.738281 4.875 -2.4375 C 5.40625 -2.132812 6 -1.984375 6.65625 -1.984375 Z M 6.65625 -1.984375 "/></g></g><g style="fill:#7ed957;fill-opacity:1;"><g transform="translate(208.971396, 19.596776)"><path style="stroke:none" d="M 6.609375 -3.90625 L 6.609375 0 L 4.046875 0 L 4.046875 -3.9375 L -0.21875 -11.03125 L 2.484375 -11.03125 L 5.4375 -6.140625 L 8.390625 -11.03125 L 10.890625 -11.03125 Z M 6.609375 -3.90625 "/></g></g></g></svg>